<?xml version="1.0" encoding="UTF-8" standalone="no"?>
<!-- Created with Inkscape (http://www.inkscape.org/) -->

<svg
   xmlns:dc="http://purl.org/dc/elements/1.1/"
   xmlns:cc="http://creativecommons.org/ns#"
   xmlns:rdf="http://www.w3.org/1999/02/22-rdf-syntax-ns#"
   xmlns:svg="http://www.w3.org/2000/svg"
   xmlns="http://www.w3.org/2000/svg"
   xmlns:sodipodi="http://sodipodi.sourceforge.net/DTD/sodipodi-0.dtd"
   xmlns:inkscape="http://www.inkscape.org/namespaces/inkscape"
   width="245.45767"
   height="254.92827"
   id="svg2"
   version="1.1"
   inkscape:version="0.48.5 r10040"
   sodipodi:docname="FerryFairLogo1.svg">
  <defs
     id="defs4" />
  <sodipodi:namedview
     id="base"
     pagecolor="#ffffff"
     bordercolor="#666666"
     borderopacity="1.0"
     inkscape:pageopacity="0"
     inkscape:pageshadow="2"
     inkscape:zoom="2.1854466"
     inkscape:cx="122.40555"
     inkscape:cy="125.60363"
     inkscape:document-units="px"
     inkscape:current-layer="layer1"
     showgrid="false"
     inkscape:window-width="1232"
     inkscape:window-height="755"
     inkscape:window-x="0"
     inkscape:window-y="0"
     inkscape:window-maximized="1"
     inkscape:snap-page="false"
     inkscape:snap-grids="true"
     fit-margin-top="0"
     fit-margin-left="0"
     fit-margin-right="0"
     fit-margin-bottom="0"
     inkscape:showpageshadow="false" />
  <metadata
     id="metadata7">
    <rdf:RDF>
      <cc:Work
         rdf:about="">
        <dc:format>image/svg+xml</dc:format>
        <dc:type
           rdf:resource="http://purl.org/dc/dcmitype/StillImage" />
        <dc:title />
      </cc:Work>
    </rdf:RDF>
  </metadata>
  <g
     inkscape:label="Layer 1"
     inkscape:groupmode="layer"
     id="layer1"
     transform="translate(-222.74371,-349.42618)">
    <path
       style="fill:#ff8080;stroke:#000000;stroke-width:1px;stroke-linecap:butt;stroke-linejoin:miter;stroke-opacity:1"
       d="m 223.24371,512.94073 c 0.67701,0.35113 2.30959,90.91329 74.94899,90.91372 127.27922,0 98.79725,0 98.79725,0 71.72083,0 70.71068,-90.91373 70.71068,-90.91373"
       id="path2989"
       inkscape:connector-curvature="0"
       sodipodi:nodetypes="cccc" />
    <path
       sodipodi:type="spiral"
       style="fill:#008000;stroke:#000000;stroke-width:1px;stroke-linecap:butt;stroke-linejoin:miter;stroke-opacity:1"
       id="path2993"
       sodipodi:cx="328.29959"
       sodipodi:cy="413.94577"
       sodipodi:expansion="1"
       sodipodi:revolution="3"
       sodipodi:radius="68.489532"
       sodipodi:argument="-18.200155"
       sodipodi:t0="0"
       d="m 328.29959,413.94577 c 2.73496,2.07655 -1.44981,4.71117 -3.45135,4.54569 -5.42407,-0.44845 -7.193,-7.07534 -5.64002,-11.4484 2.77791,-7.82238 12.47041,-10.02058 19.44543,-6.73435 10.23613,4.82267 12.91949,17.93416 7.82869,27.44248 -6.78525,12.67308 -23.42171,15.84804 -35.43952,8.92301 -15.12319,-8.71443 -18.79177,-28.92044 -10.01735,-43.43655 10.627,-17.58097 34.42545,-21.74427 51.4336,-11.11169 20.04351,12.53013 24.70225,39.93437 12.20601,59.43064 -14.42739,22.50922 -45.44589,27.66391 -67.42768,13.30035 -24.97709,-16.32079 -30.62812,-50.95926 -14.39467,-75.42472 18.21147,-27.44655 56.47395,-33.59421 83.42176,-15.48901 29.91717,20.1002 36.56169,61.98966 16.58334,91.4188"
       transform="matrix(0.50095974,0.86547059,-0.86547059,0.50095974,532.53864,-84.844923)" />
    <path
       sodipodi:type="star"
       style="fill:#ffff00;fill-rule:evenodd;stroke:#000000;stroke-width:1px;stroke-linecap:butt;stroke-linejoin:miter;stroke-opacity:1"
       id="path2997"
       sodipodi:sides="5"
       sodipodi:cx="277.79196"
       sodipodi:cy="517.99152"
       sodipodi:r1="23.840456"
       sodipodi:r2="11.920228"
       sodipodi:arg1="-0.63502674"
       sodipodi:arg2="-0.0067082047"
       inkscape:flatsided="false"
       inkscape:rounded="2.12"
       inkscape:randomized="0"
       d="m 296.98486,503.84938 c 19.90957,27.02013 -7.49808,-19.50012 -7.27294,14.06217 0.22515,33.56229 27.00622,-13.32146 7.46094,13.96334 -19.54527,27.2848 16.22868,-13.15697 -15.62138,-2.57153 -31.85006,10.58545 21.01485,21.56788 -10.97436,11.41069 -31.98921,-10.15719 17.52796,11.36866 -2.38161,-15.65147 -19.90956,-27.02012 -14.01832,26.65115 -14.24347,-6.91114 -0.22514,-33.56229 -5.3958,20.18319 14.14947,-7.10161 19.54527,-27.2848 -29.67865,-5.09656 2.17141,-15.68201 31.85006,-10.58544 -20.86275,1.10524 11.12646,11.26243 31.98921,10.15719 -4.32409,-29.80099 15.58548,-2.78087 z"
       inkscape:transform-center-x="-0.94689361"
       inkscape:transform-center-y="-0.021753452" />
    <path
       sodipodi:type="star"
       style="fill:#ffff00;fill-rule:evenodd;stroke:#000000;stroke-width:1px;stroke-linecap:butt;stroke-linejoin:miter;stroke-opacity:1"
       id="path2999"
       sodipodi:sides="5"
       sodipodi:cx="374.7666"
       sodipodi:cy="528.09302"
       sodipodi:r1="15.811387"
       sodipodi:r2="14.519752"
       sodipodi:arg1="0.46364762"
       sodipodi:arg2="2.8587278"
       inkscape:flatsided="false"
       inkscape:rounded="4.12"
       inkscape:randomized="0"
       d="m 388.90874,535.16408 c -91.95272,-71.33078 75.19525,-56.65243 -28.08487,-3.01849 -59.90576,31.1094 -11.27965,75.09286 11.58791,11.58248 39.42465,-109.49466 77.11628,54.00836 -5.80795,-27.64307 -48.09869,-47.36042 -74.90316,12.4774 -7.43472,14.59994 116.31849,3.65936 -27.53477,90.03145 24.49536,-14.06586 30.17913,-60.37975 -35.01306,-67.38141 -16.18283,-2.55921 32.46413,111.75626 -94.1337,1.63412 20.94691,18.94988 66.75043,10.04369 53.26391,-54.12139 -2.5668,-16.18162 -96.25456,65.40981 -30.64307,-89.0215 -11.54946,25.77753 11.0749,66.58709 67.93195,33.93255 14.59645,-7.44158 z"
       inkscape:transform-center-x="0.2802869"
       inkscape:transform-center-y="-0.67816469" />
  </g>
</svg>
